<svg xmlns="http://www.w3.org/2000/svg" width="125" height="29" viewBox="0 0 125 29" fill="none"><path fill-rule="evenodd" clip-rule="evenodd" d="M21.3497 0L15.9849 3.09161V20.8817L14.7806 20.1701V6.24169L9.47053 9.33182V11.9593L0 17.4331L18.8316 28.3261L37.5537 17.5426L28.0831 12.0412V6.92332L22.7731 3.85795V20.2795L21.3497 21.1006V0ZM9.47053 14.6253V17.05L7.33555 15.8457L9.47053 14.6253ZM30.2181 15.9552L28.1379 17.1594V14.7509L30.2181 15.9552Z" fill="#4A4A4C"></path><path d="M44.528 21.3958V11.2661H47.7959L51.0638 14.5338L54.4951 11.2661H57.5996V21.3958H54.4951V15.5957L51.0638 19.0268L47.6325 15.5141V21.3958H44.528Z" fill="#4A4A4C"></path><path d="M61.276 11.2661V15.0239H60.3773V17.3113H61.276V21.3958H71.6515V18.6183H64.3805V17.3113H71.6515V15.0239H64.3805V13.9619H71.6515V11.2661H61.276Z" fill="#4A4A4C"></path><path d="M73.7757 13.9619V11.2661H85.2133V13.9619H80.9651V21.3958H78.024V13.9619H73.7757Z" fill="#4A4A4C"></path><path d="M89.9518 18.6183H97.468V21.3958H88.5629L86.929 19.5169V13.0633L88.5629 11.2661H97.468V13.9619H89.9518V18.6183Z" fill="#4A4A4C"></path><path fill-rule="evenodd" clip-rule="evenodd" d="M99.4287 19.5169V13.0633L101.144 11.2661H109.723L111.357 13.0633V19.5169L109.723 21.3958H101.144L99.4287 19.5169ZM102.533 14.5338L103.009 14.0436H107.925L108.252 14.5338V18.1282L107.762 18.6183H103.023L102.533 18.1282V14.5338Z" fill="#4A4A4C"></path><path d="M113.399 21.3958H116.585V14.4521H121.977V21.3958H125V13.0633L123.529 11.2661H115.115L113.399 13.0633V21.3958Z" fill="#4A4A4C"></path></svg>