<svg xmlns="http://www.w3.org/2000/svg" width="134" height="33" viewBox="0 0 134 33" fill="none"><g clip-path="url(#clip0)"><path d="M36.0801 21V10.9785H39.8604C40.5257 10.9785 41.0339 11.0104 41.3848 11.0742C41.877 11.1562 42.2894 11.3135 42.6221 11.5459C42.9548 11.7738 43.2214 12.0951 43.4219 12.5098C43.627 12.9245 43.7295 13.3802 43.7295 13.877C43.7295 14.7292 43.4583 15.4515 42.916 16.0439C42.3737 16.6318 41.3939 16.9258 39.9766 16.9258H37.4062V21H36.0801ZM37.4062 15.7432H39.9971C40.8538 15.7432 41.4622 15.5837 41.8223 15.2646C42.1823 14.9456 42.3623 14.4967 42.3623 13.918C42.3623 13.4987 42.2552 13.141 42.041 12.8447C41.8314 12.5439 41.5534 12.3457 41.207 12.25C40.9837 12.1908 40.5713 12.1611 39.9697 12.1611H37.4062V15.7432Z" fill="#232320"></path><path d="M45.2607 21V10.9785H46.4912V14.5742C47.0654 13.9089 47.79 13.5762 48.665 13.5762C49.2028 13.5762 49.6699 13.6833 50.0664 13.8975C50.4629 14.1071 50.7454 14.3988 50.9141 14.7725C51.0872 15.1462 51.1738 15.6885 51.1738 16.3994V21H49.9434V16.3994C49.9434 15.7842 49.8089 15.3376 49.54 15.0596C49.2757 14.777 48.8997 14.6357 48.4121 14.6357C48.0475 14.6357 47.7035 14.7314 47.3799 14.9229C47.0609 15.1097 46.833 15.3649 46.6963 15.6885C46.5596 16.012 46.4912 16.4587 46.4912 17.0283V21H45.2607Z" fill="#232320"></path><path d="M52.5957 17.3701C52.5957 16.0257 52.9694 15.0299 53.7168 14.3828C54.3411 13.8451 55.1022 13.5762 56 13.5762C56.998 13.5762 57.8138 13.9043 58.4473 14.5605C59.0807 15.2122 59.3975 16.1146 59.3975 17.2676C59.3975 18.2018 59.2562 18.9378 58.9736 19.4756C58.6956 20.0088 58.2878 20.4235 57.75 20.7197C57.2168 21.016 56.6335 21.1641 56 21.1641C54.9837 21.1641 54.1611 20.8382 53.5322 20.1865C52.9079 19.5348 52.5957 18.596 52.5957 17.3701ZM53.8604 17.3701C53.8604 18.2998 54.0632 18.9971 54.4688 19.4619C54.8743 19.9222 55.3848 20.1523 56 20.1523C56.6107 20.1523 57.1188 19.9199 57.5244 19.4551C57.93 18.9902 58.1328 18.2816 58.1328 17.3291C58.1328 16.4313 57.9277 15.7523 57.5176 15.292C57.112 14.8271 56.6061 14.5947 56 14.5947C55.3848 14.5947 54.8743 14.8249 54.4688 15.2852C54.0632 15.7454 53.8604 16.4404 53.8604 17.3701Z" fill="#232320"></path><path d="M63.5332 19.8994L63.7109 20.9863C63.3646 21.0592 63.0547 21.0957 62.7812 21.0957C62.3346 21.0957 61.9883 21.0251 61.7422 20.8838C61.4961 20.7425 61.3229 20.5579 61.2227 20.3301C61.1224 20.0977 61.0723 19.6123 61.0723 18.874V14.6973H60.1699V13.7402H61.0723V11.9424L62.2959 11.2041V13.7402H63.5332V14.6973H62.2959V18.9424C62.2959 19.2933 62.3164 19.5189 62.3574 19.6191C62.403 19.7194 62.4736 19.7992 62.5693 19.8584C62.6696 19.9176 62.8109 19.9473 62.9932 19.9473C63.1299 19.9473 63.3099 19.9313 63.5332 19.8994Z" fill="#232320"></path><path d="M64.2852 17.3701C64.2852 16.0257 64.6589 15.0299 65.4062 14.3828C66.0306 13.8451 66.7917 13.5762 67.6895 13.5762C68.6875 13.5762 69.5033 13.9043 70.1367 14.5605C70.7702 15.2122 71.0869 16.1146 71.0869 17.2676C71.0869 18.2018 70.9456 18.9378 70.6631 19.4756C70.3851 20.0088 69.9772 20.4235 69.4395 20.7197C68.9062 21.016 68.3229 21.1641 67.6895 21.1641C66.6732 21.1641 65.8506 20.8382 65.2217 20.1865C64.5973 19.5348 64.2852 18.596 64.2852 17.3701ZM65.5498 17.3701C65.5498 18.2998 65.7526 18.9971 66.1582 19.4619C66.5638 19.9222 67.0742 20.1523 67.6895 20.1523C68.3001 20.1523 68.8083 19.9199 69.2139 19.4551C69.6195 18.9902 69.8223 18.2816 69.8223 17.3291C69.8223 16.4313 69.6172 15.7523 69.207 15.292C68.8014 14.8271 68.2956 14.5947 67.6895 14.5947C67.0742 14.5947 66.5638 14.8249 66.1582 15.2852C65.7526 15.7454 65.5498 16.4404 65.5498 17.3701Z" fill="#232320"></path><path d="M72.6934 21V10.9785H76.4736C77.139 10.9785 77.6471 11.0104 77.998 11.0742C78.4902 11.1562 78.9027 11.3135 79.2354 11.5459C79.568 11.7738 79.8346 12.0951 80.0352 12.5098C80.2402 12.9245 80.3428 13.3802 80.3428 13.877C80.3428 14.7292 80.0716 15.4515 79.5293 16.0439C78.987 16.6318 78.0072 16.9258 76.5898 16.9258H74.0195V21H72.6934ZM74.0195 15.7432H76.6104C77.4671 15.7432 78.0755 15.5837 78.4355 15.2646C78.7956 14.9456 78.9756 14.4967 78.9756 13.918C78.9756 13.4987 78.8685 13.141 78.6543 12.8447C78.4447 12.5439 78.1667 12.3457 77.8203 12.25C77.597 12.1908 77.1846 12.1611 76.583 12.1611H74.0195V15.7432Z" fill="#232320"></path><path d="M81.874 21V10.9785H83.1045V14.5742C83.6787 13.9089 84.4033 13.5762 85.2783 13.5762C85.8161 13.5762 86.2832 13.6833 86.6797 13.8975C87.0762 14.1071 87.3587 14.3988 87.5273 14.7725C87.7005 15.1462 87.7871 15.6885 87.7871 16.3994V21H86.5566V16.3994C86.5566 15.7842 86.4222 15.3376 86.1533 15.0596C85.889 14.777 85.513 14.6357 85.0254 14.6357C84.6608 14.6357 84.3167 14.7314 83.9932 14.9229C83.6742 15.1097 83.4463 15.3649 83.3096 15.6885C83.1729 16.012 83.1045 16.4587 83.1045 17.0283V21H81.874Z" fill="#232320"></path><path d="M94.4043 20.1045C93.9486 20.4919 93.5088 20.7653 93.085 20.9248C92.6657 21.0843 92.2145 21.1641 91.7314 21.1641C90.9339 21.1641 90.321 20.9704 89.8926 20.583C89.4642 20.1911 89.25 19.6921 89.25 19.0859C89.25 18.7305 89.3298 18.4069 89.4893 18.1152C89.6533 17.819 89.8652 17.582 90.125 17.4043C90.3893 17.2266 90.6855 17.0921 91.0137 17.001C91.2552 16.9372 91.6198 16.8757 92.1074 16.8164C93.1009 16.6979 93.8324 16.5566 94.3018 16.3926C94.3063 16.224 94.3086 16.1169 94.3086 16.0713C94.3086 15.57 94.1924 15.2168 93.96 15.0117C93.6455 14.7337 93.1784 14.5947 92.5586 14.5947C91.9798 14.5947 91.5514 14.6973 91.2734 14.9023C91 15.1029 90.7972 15.4606 90.665 15.9756L89.4619 15.8115C89.5713 15.2965 89.7513 14.8818 90.002 14.5674C90.2526 14.2484 90.6149 14.0046 91.0889 13.8359C91.5628 13.6628 92.112 13.5762 92.7363 13.5762C93.3561 13.5762 93.8597 13.6491 94.2471 13.7949C94.6344 13.9408 94.9193 14.1253 95.1016 14.3486C95.2839 14.5674 95.4115 14.8454 95.4844 15.1826C95.5254 15.3923 95.5459 15.7705 95.5459 16.3174V17.958C95.5459 19.1019 95.571 19.8265 95.6211 20.1318C95.6758 20.4326 95.7806 20.722 95.9355 21H94.6504C94.5228 20.7448 94.4408 20.4463 94.4043 20.1045ZM94.3018 17.3564C93.8551 17.5387 93.1852 17.6937 92.292 17.8213C91.7861 17.8942 91.4284 17.9762 91.2188 18.0674C91.0091 18.1585 90.8473 18.293 90.7334 18.4707C90.6195 18.6439 90.5625 18.8376 90.5625 19.0518C90.5625 19.3799 90.6855 19.6533 90.9316 19.8721C91.1823 20.0908 91.5469 20.2002 92.0254 20.2002C92.4993 20.2002 92.9209 20.0977 93.29 19.8926C93.6592 19.6829 93.9303 19.3981 94.1035 19.0381C94.2357 18.7601 94.3018 18.3499 94.3018 17.8076V17.3564Z" fill="#232320"></path><path d="M97.4463 21V13.7402H98.5537V14.8408C98.8363 14.3258 99.096 13.9863 99.333 13.8223C99.5745 13.6582 99.8389 13.5762 100.126 13.5762C100.541 13.5762 100.962 13.7083 101.391 13.9727L100.967 15.1143C100.666 14.9365 100.365 14.8477 100.064 14.8477C99.7956 14.8477 99.554 14.9297 99.3398 15.0938C99.1257 15.2533 98.973 15.4766 98.8818 15.7637C98.7451 16.2012 98.6768 16.6797 98.6768 17.1992V21H97.4463Z" fill="#232320"></path><path d="M102.122 21V13.7402H103.223V14.7588C103.451 14.4033 103.754 14.1185 104.132 13.9043C104.51 13.6855 104.941 13.5762 105.424 13.5762C105.962 13.5762 106.401 13.6878 106.743 13.9111C107.09 14.1344 107.333 14.4466 107.475 14.8477C108.049 14 108.796 13.5762 109.717 13.5762C110.437 13.5762 110.991 13.7767 111.378 14.1777C111.765 14.5742 111.959 15.1872 111.959 16.0166V21H110.735V16.4268C110.735 15.9346 110.694 15.5814 110.612 15.3672C110.535 15.1484 110.391 14.973 110.182 14.8408C109.972 14.7087 109.726 14.6426 109.443 14.6426C108.933 14.6426 108.509 14.8135 108.172 15.1553C107.835 15.4925 107.666 16.0348 107.666 16.7822V21H106.436V16.2832C106.436 15.7363 106.335 15.3262 106.135 15.0527C105.934 14.7793 105.606 14.6426 105.15 14.6426C104.804 14.6426 104.483 14.7337 104.187 14.916C103.895 15.0983 103.683 15.3649 103.551 15.7158C103.419 16.0667 103.353 16.5726 103.353 17.2334V21H102.122Z" fill="#232320"></path><path d="M113.791 12.3936V10.9785H115.021V12.3936H113.791ZM113.791 21V13.7402H115.021V21H113.791Z" fill="#232320"></path><path d="M121.639 18.3408L122.849 18.498C122.716 19.332 122.377 19.986 121.83 20.46C121.288 20.9294 120.62 21.1641 119.827 21.1641C118.834 21.1641 118.034 20.8405 117.428 20.1934C116.826 19.5417 116.525 18.6097 116.525 17.3975C116.525 16.6136 116.655 15.9277 116.915 15.3398C117.175 14.752 117.569 14.3122 118.098 14.0205C118.631 13.7243 119.21 13.5762 119.834 13.5762C120.622 13.5762 121.267 13.7767 121.769 14.1777C122.27 14.5742 122.591 15.1393 122.732 15.873L121.536 16.0576C121.422 15.57 121.219 15.2031 120.928 14.957C120.641 14.7109 120.292 14.5879 119.882 14.5879C119.262 14.5879 118.758 14.8112 118.371 15.2578C117.984 15.6999 117.79 16.4017 117.79 17.3633C117.79 18.3385 117.977 19.0472 118.351 19.4893C118.724 19.9313 119.212 20.1523 119.813 20.1523C120.297 20.1523 120.7 20.0042 121.023 19.708C121.347 19.4118 121.552 18.9561 121.639 18.3408Z" fill="#232320"></path><path d="M123.409 18.833L124.626 18.6416C124.694 19.1292 124.883 19.5029 125.193 19.7627C125.508 20.0225 125.945 20.1523 126.506 20.1523C127.071 20.1523 127.49 20.0384 127.764 19.8105C128.037 19.5781 128.174 19.307 128.174 18.9971C128.174 18.7191 128.053 18.5003 127.812 18.3408C127.643 18.2314 127.224 18.0924 126.554 17.9238C125.651 17.696 125.025 17.5 124.674 17.3359C124.327 17.1673 124.063 16.9372 123.881 16.6455C123.703 16.3493 123.614 16.0234 123.614 15.668C123.614 15.3444 123.687 15.0459 123.833 14.7725C123.983 14.4945 124.186 14.2643 124.441 14.082C124.633 13.9408 124.893 13.8223 125.221 13.7266C125.553 13.6263 125.909 13.5762 126.287 13.5762C126.857 13.5762 127.356 13.6582 127.784 13.8223C128.217 13.9863 128.536 14.2096 128.741 14.4922C128.946 14.7702 129.088 15.1439 129.165 15.6133L127.962 15.7773C127.907 15.4036 127.748 15.112 127.483 14.9023C127.224 14.6927 126.854 14.5879 126.376 14.5879C125.811 14.5879 125.408 14.6813 125.166 14.8682C124.924 15.055 124.804 15.2738 124.804 15.5244C124.804 15.6839 124.854 15.8275 124.954 15.9551C125.054 16.0872 125.212 16.1966 125.426 16.2832C125.549 16.3288 125.911 16.4336 126.513 16.5977C127.383 16.8301 127.989 17.0215 128.331 17.1719C128.677 17.3177 128.949 17.5319 129.145 17.8145C129.34 18.097 129.438 18.4479 129.438 18.8672C129.438 19.2773 129.318 19.6647 129.076 20.0293C128.839 20.3893 128.495 20.6696 128.044 20.8701C127.593 21.0661 127.082 21.1641 126.513 21.1641C125.569 21.1641 124.849 20.9681 124.353 20.5762C123.86 20.1842 123.546 19.6032 123.409 18.833Z" fill="#232320"></path><mask id="mask0" maskUnits="userSpaceOnUse" x="-19" y="-21" width="69" height="69"><path d="M29 34.5C29 41.9558 22.9558 48 15.5 48C8.04416 48 2 41.9558 2 34.5C2 27.0442 8.04416 21 15.5 21C22.9558 21 29 27.0442 29 34.5Z" fill="#232320" fill-opacity="0.5"></path><path d="M44 28.5C44 35.9558 37.9558 42 30.5 42C23.0442 42 17 35.9558 17 28.5C17 21.0442 23.0442 15 30.5 15C37.9558 15 44 21.0442 44 28.5Z" fill="#232320" fill-opacity="0.5"></path><path d="M50 13.5C50 20.9558 43.9558 27 36.5 27C29.0442 27 23 20.9558 23 13.5C23 6.04416 29.0442 0 36.5 0C43.9558 0 50 6.04416 50 13.5Z" fill="#232320" fill-opacity="0.5"></path><path d="M43 -1.5C43 5.95584 36.9558 12 29.5 12C22.0442 12 16 5.95584 16 -1.5C16 -8.95584 22.0442 -15 29.5 -15C36.9558 -15 43 -8.95584 43 -1.5Z" fill="#232320" fill-opacity="0.5"></path><path d="M29 -7.5C29 -0.0441561 22.9558 6 15.5 6C8.04416 6 2 -0.0441561 2 -7.5C2 -14.9558 8.04416 -21 15.5 -21C22.9558 -21 29 -14.9558 29 -7.5Z" fill="#232320" fill-opacity="0.5"></path><path d="M14 -1.5C14 5.95584 7.95584 12 0.5 12C-6.95584 12 -13 5.95584 -13 -1.5C-13 -8.95584 -6.95584 -15 0.5 -15C7.95584 -15 14 -8.95584 14 -1.5Z" fill="#232320" fill-opacity="0.5"></path><path d="M8 13.5C8 20.9558 1.95584 27 -5.5 27C-12.9558 27 -19 20.9558 -19 13.5C-19 6.04416 -12.9558 0 -5.5 0C1.95584 0 8 6.04416 8 13.5Z" fill="#232320" fill-opacity="0.5"></path><path d="M14 28.5C14 35.9558 7.95584 42 0.5 42C-6.95584 42 -13 35.9558 -13 28.5C-13 21.0442 -6.95584 15 0.5 15C7.95584 15 14 21.0442 14 28.5Z" fill="#232320" fill-opacity="0.5"></path></mask><g mask="url(#mask0)"><path d="M31 16.5C31 23.9558 24.9558 30 17.5 30C10.0442 30 4 23.9558 4 16.5C4 9.04416 10.0442 3 17.5 3C24.9558 3 31 9.04416 31 16.5Z" fill="black"></path></g></g><defs><clipPath id="clip0"><rect width="134" height="33" fill="white"></rect></clipPath></defs></svg>